<svg xmlns="http://www.w3.org/2000/svg" width="58.837" height="15.678" viewBox="0 0 58.837 15.678">
  <path id="PP" d="M6306.217,84.375a.382.382,0,0,0-.376.323l-1.878,11.95a.38.38,0,0,0,.376.44h1.888a.635.635,0,0,0,.628-.537l1.852-11.735a.381.381,0,0,0-.376-.441Zm-53.858,0a.636.636,0,0,0-.628.537l-1.851,11.735a.38.38,0,0,0,.377.44h2.185a.636.636,0,0,0,.628-.537l.5-3.165a.635.635,0,0,1,.627-.537h1.449c3.015,0,4.755-1.459,5.209-4.349a3.525,3.525,0,0,0-.583-2.954,4.246,4.246,0,0,0-3.335-1.168Zm32.642,0a.636.636,0,0,0-.627.537l-1.851,11.735a.381.381,0,0,0,.376.44h2.349a.445.445,0,0,0,.439-.376l.525-3.326a.636.636,0,0,1,.628-.537h1.448c3.015,0,4.754-1.459,5.209-4.349a3.524,3.524,0,0,0-.584-2.954,4.241,4.241,0,0,0-3.334-1.168Zm-30.085,2.539h.316c.827,0,1.606,0,2.009.471a1.527,1.527,0,0,1,.222,1.276c-.25,1.642-1.5,1.642-2.718,1.642h-.69l.484-3.067A.381.381,0,0,1,6254.916,86.914Zm32.644,0h.316c.826,0,1.606,0,2.009.471a1.525,1.525,0,0,1,.221,1.276c-.25,1.642-1.5,1.642-2.718,1.642h-.69l.485-3.067A.381.381,0,0,1,6287.559,86.914ZM6265.208,88.4a5.04,5.04,0,0,0-4.893,4.407,4.137,4.137,0,0,0,.816,3.367,3.43,3.43,0,0,0,2.761,1.115,4.193,4.193,0,0,0,3.033-1.255l-.1.609a.381.381,0,0,0,.376.442h1.974a.635.635,0,0,0,.628-.537l1.185-7.5a.38.38,0,0,0-.375-.44h-2.192a.382.382,0,0,0-.376.322l-.1.613-.153-.222a3.119,3.119,0,0,0-2.588-.919Zm32.644,0a5.038,5.038,0,0,0-4.892,4.407,4.138,4.138,0,0,0,.815,3.367,3.431,3.431,0,0,0,2.76,1.115,4.192,4.192,0,0,0,3.033-1.255l-.1.609a.382.382,0,0,0,.378.442h1.973a.635.635,0,0,0,.627-.537l1.185-7.5a.382.382,0,0,0-.378-.44h-2.19a.38.38,0,0,0-.376.322l-.1.613-.154-.222a3.118,3.118,0,0,0-2.588-.919Zm-25.393.206a.382.382,0,0,0-.362.5l2.426,7.118-2.281,3.219a.381.381,0,0,0,.311.6h2.2a.634.634,0,0,0,.522-.273l7.325-10.573a.382.382,0,0,0-.313-.6h-2.2a.638.638,0,0,0-.527.279l-3.037,4.474-1.288-4.3a.638.638,0,0,0-.61-.454Zm-6.731,2.118a1.848,1.848,0,0,1,1.461.6,1.9,1.9,0,0,1,.371,1.55,2.442,2.442,0,0,1-2.473,2.092,1.7,1.7,0,0,1-1.815-2.131A2.453,2.453,0,0,1,6265.728,90.726Zm32.642,0a1.849,1.849,0,0,1,1.461.6,1.887,1.887,0,0,1,.371,1.55,2.441,2.441,0,0,1-2.473,2.092,1.7,1.7,0,0,1-1.815-2.131A2.455,2.455,0,0,1,6298.37,90.726Z" transform="translate(-6249.875 -84.375)" fill="#fff"/>
</svg>
