<svg xmlns="http://www.w3.org/2000/svg" width="65.616" height="14.904" viewBox="0 0 65.616 14.904">
  <g id="SagePay" transform="translate(0 0)">
    <path id="path22" d="M-276.44-44.97a2.667,2.667,0,0,1,.409-1.5,2.672,2.672,0,0,1,2.283-1.1,2.8,2.8,0,0,1,2.265,1.029A2.553,2.553,0,0,1-271-44.97Zm-21.04-.178a5.066,5.066,0,0,1-2.744-.563.943.943,0,0,1,.2-1.349,3.282,3.282,0,0,1,1.912-.372,5.664,5.664,0,0,1,2.839.958l.985-.958s1.04,1,1.04.958a3.569,3.569,0,0,1,2.771-.888c1.545,0,1.988.316,2.215.673a5.9,5.9,0,0,1,0,1.6s-1.364.044-2.348-.008a7.691,7.691,0,0,0-2,.09,3.148,3.148,0,0,0-1.675.762,6.336,6.336,0,0,0-.876-.527,5.242,5.242,0,0,0-2.313-.375m8.4,4.224a5.341,5.341,0,0,1-2.189.143c-.721-.091-1.408-.145-1.689-.825a.972.972,0,0,1,.117-1.022,2.33,2.33,0,0,1,1.749-.6h2.828c.075.773.311,1.93-.816,2.3m4.335-3.3c.02-.567.071-1.173.128-1.768.028-.29.362-.641.832-.91a3.137,3.137,0,0,1,1.487-.423,3.113,3.113,0,0,1,1.166.223,1.674,1.674,0,0,1,1.168,1.3c.047.545.1,1.06.124,1.554a6.518,6.518,0,0,1-.112,1.766,1.662,1.662,0,0,1-.6.959,2.521,2.521,0,0,1-1.743.581,2.59,2.59,0,0,1-2.2-1.079,5.417,5.417,0,0,1-.244-2.2m15.551-.716a4.518,4.518,0,0,0-4.814-4.421,5.185,5.185,0,0,0-3.349,1.221v-1.092h-2.459v1.093a4.333,4.333,0,0,0-2.071-1.156,5.279,5.279,0,0,0-2.535.219,3.635,3.635,0,0,0-1.816,1.22,5.255,5.255,0,0,0-3.941-1.5,6.222,6.222,0,0,0-4.112,1.021,8.588,8.588,0,0,0-4.087-1.059A5.36,5.36,0,0,0-302-48.212a2.223,2.223,0,0,0-.654.98,2.711,2.711,0,0,0,.175,2.364,3.509,3.509,0,0,0,2.837,1.5c1.213.143,2.063.144,2.961.317a.946.946,0,0,1,.813.9c0,.57-.759,1.5-2.592,1.378A5.715,5.715,0,0,1-302-42.082l-1.622,1.376s.277.232.465.362.37.243.565.353h0a8.709,8.709,0,0,0,5.579,1,6.365,6.365,0,0,0,2.541-.99,4.461,4.461,0,0,0,3.347,1.09c1.221-.058,2.127-.012,2.975-1.035V-38.9h2.375v-1.022a7.22,7.22,0,0,0,.638.484,4.978,4.978,0,0,0,5.326-.543l0,1.323a2.136,2.136,0,0,1-1.505,1.689,3.472,3.472,0,0,1-3.531-.724l-1.8,1.263a5.009,5.009,0,0,0,1.622,1.142,6.169,6.169,0,0,0,5.795-.362,3.58,3.58,0,0,0,1.687-2.653,9.19,9.19,0,0,0,.166-1.686c0-.016,0-.031,0-.046l.062.046a5.235,5.235,0,0,0,1.622.856,6.476,6.476,0,0,0,3.729-.016,5.147,5.147,0,0,0,1.727-.84h0a5.939,5.939,0,0,0,.777-.7L-271-41.851a4.381,4.381,0,0,1-2.2,1.023,3.255,3.255,0,0,1-2.831-.778c-.342-.389-.461-.511-.461-1.5l7.3.009Z" transform="translate(303.625 49.636)" fill="#fff" fill-rule="evenodd"/>
    <path id="Path_2" data-name="Path 2" d="M5207.358,19705.41v-1.07a5.48,5.48,0,0,0,.865.082,1.325,1.325,0,0,0,1.206-.5,8.652,8.652,0,0,0,.6-1.121l.443-1.182-4.156-10.369,1.367-.008,3.418,8.855,3.2-8.85,1.272,0-4.52,12a4.957,4.957,0,0,1-1.066,1.781,2.493,2.493,0,0,1-1.669.459A3.877,3.877,0,0,1,5207.358,19705.41Zm-20.274.08v-14.242h1.17v1.977a3.573,3.573,0,0,1,1.463-1.674,4.323,4.323,0,0,1,2.29-.605,4.123,4.123,0,0,1,3.48,1.561,7.015,7.015,0,0,1-.01,7.863,4.121,4.121,0,0,1-3.47,1.57,4.252,4.252,0,0,1-2.219-.59,3.185,3.185,0,0,1-1.393-1.67l-.04,5.811Zm2.128-12.238a5.484,5.484,0,0,0-.857,3.189,5.4,5.4,0,0,0,.888,3.141,3.121,3.121,0,0,0,2.764,1.289,2.852,2.852,0,0,0,2.542-1.318,6.055,6.055,0,0,0,.01-6.23,2.85,2.85,0,0,0-2.552-1.309A3.153,3.153,0,0,0,5189.212,19693.252Zm9.054,7.922a2.711,2.711,0,0,1-.979-2.275,2.554,2.554,0,0,1,.747-2.023,3.715,3.715,0,0,1,1.715-.855q.968-.2,2.4-.371a9.456,9.456,0,0,0,1.9-.352q.464-.182.464-1.148a1.838,1.838,0,0,0-.716-1.672,3.688,3.688,0,0,0-2.007-.463,3.2,3.2,0,0,0-2.018.6,2.166,2.166,0,0,0-.766,1.826h-1.271a3.065,3.065,0,0,1,1.16-2.623,4.979,4.979,0,0,1,3.057-.867,4.834,4.834,0,0,1,2.754.727,2.927,2.927,0,0,1,1.079,2.621v5.529a.669.669,0,0,0,.747.766,1.1,1.1,0,0,0,.4-.08v1.068a3.956,3.956,0,0,1-.827.08,1.359,1.359,0,0,1-1.2-.434,2.525,2.525,0,0,1-.292-1.381,5.533,5.533,0,0,1-1.584,1.6,4.294,4.294,0,0,1-2.249.5A3.948,3.948,0,0,1,5198.266,19701.174Zm5.9-4.945a8.922,8.922,0,0,1-1.311.293q-1.069.19-2.684.471-1.614.5-1.614,1.83a1.826,1.826,0,0,0,.686,1.486,2.493,2.493,0,0,0,1.634.563,3.856,3.856,0,0,0,2.572-.895,2.937,2.937,0,0,0,1.059-2.361v-1.646A.714.714,0,0,1,5204.167,19696.229Z" transform="translate(-5149.962 -19690.945)" fill="#fff"/>
  </g>
</svg>
