<svg xmlns="http://www.w3.org/2000/svg" width="55.162" height="19.036" viewBox="0 0 55.162 19.036">
  <path id="Ver" d="M9.518,19.037A9.588,9.588,0,0,1,7.6,18.844a9.466,9.466,0,0,1-3.4-1.432A9.546,9.546,0,0,1,.748,13.224a9.47,9.47,0,0,1-.555-1.787,9.611,9.611,0,0,1,0-3.836A9.466,9.466,0,0,1,1.626,4.2,9.546,9.546,0,0,1,5.813.749,9.47,9.47,0,0,1,7.6.194,9.588,9.588,0,0,1,9.518,0a9.52,9.52,0,0,1,9.315,7.55,5.069,5.069,0,0,1,2.3-.514,3.985,3.985,0,0,1,3.2,1.329,4.275,4.275,0,0,1,.689,1.159,5.9,5.9,0,0,1,.349,1.271,7.29,7.29,0,0,1,.093,1.213,6.375,6.375,0,0,1-.079.988H19a1.779,1.779,0,0,0,.067.333,2.324,2.324,0,0,0,1.25,1.464,3.807,3.807,0,0,0,1.663.333,10.338,10.338,0,0,0,1.951-.213c.528-.106.883-.212.887-.213l.284,2.27h0a7.564,7.564,0,0,1-.957.283,10.785,10.785,0,0,1-2.448.284,6.486,6.486,0,0,1-2.658-.515,4.294,4.294,0,0,1-1.965-1.712A9.559,9.559,0,0,1,13.8,18.024a9.467,9.467,0,0,1-2.045.75A9.564,9.564,0,0,1,9.518,19.037ZM2.564,4.262c0,.014.5,1.467,1.455,3.8C4.575,9.425,5.173,10.817,5.8,12.2c.78,1.725,1.6,3.437,2.444,5.088H10.8c.842-1.65,1.664-3.362,2.444-5.088.624-1.38,1.222-2.772,1.778-4.137.95-2.331,1.45-3.783,1.455-3.8H13.208v0c-.042.121-.431,1.233-1.046,2.854C11.562,8.7,10.618,11.1,9.518,13.6,8.418,11.1,7.474,8.7,6.875,7.119,6.224,5.4,5.832,4.273,5.828,4.262ZM20.986,9.023a1.8,1.8,0,0,0-1.685.993,2.8,2.8,0,0,0-.3.993h3.973a2.784,2.784,0,0,0-.3-.993,1.8,1.8,0,0,0-1.685-.993Zm30.407,8.514a6.988,6.988,0,0,1-2.04-.284,4.752,4.752,0,0,1-1.721-.922,4.333,4.333,0,0,1-1.188-1.667A6.633,6.633,0,0,1,46,12.145a6.1,6.1,0,0,1,.355-2.115,4.6,4.6,0,0,1,.993-1.61A4.338,4.338,0,0,1,48.874,7.4a5.213,5.213,0,0,1,1.951-.359,3.985,3.985,0,0,1,3.2,1.329,4.275,4.275,0,0,1,.689,1.159,5.9,5.9,0,0,1,.349,1.27,7.291,7.291,0,0,1,.093,1.213,6.374,6.374,0,0,1-.079.988H48.7a1.779,1.779,0,0,0,.067.333,2.324,2.324,0,0,0,1.251,1.464,3.807,3.807,0,0,0,1.663.333,10.34,10.34,0,0,0,1.951-.213c.529-.106.883-.212.887-.213l.284,2.27h0a7.558,7.558,0,0,1-.957.283,10.786,10.786,0,0,1-2.448.284Zm-.709-8.514A1.8,1.8,0,0,0,49,10.016a2.8,2.8,0,0,0-.3.993H52.67a2.784,2.784,0,0,0-.3-.993,1.8,1.8,0,0,0-1.685-.993Zm-9.515,8.262H38.9c-.55-1.036-1.094-2.207-1.616-3.48-.418-1.019-.823-2.106-1.2-3.231-.65-1.918-1.008-3.293-1.011-3.307h2.838a44.294,44.294,0,0,0,2.129,6.615,44.307,44.307,0,0,0,2.129-6.613H45v0c-.038.146-.392,1.48-1.011,3.3-.381,1.125-.786,2.212-1.2,3.231-.522,1.274-1.066,2.445-1.616,3.48Zm-10.724,0H27.607V8.2a6.142,6.142,0,0,1,1.98-.894,7.542,7.542,0,0,1,1.868-.227,8.729,8.729,0,0,1,1.515.134,5.821,5.821,0,0,1,.6.134l-.426,2.27a3.764,3.764,0,0,0-1.158-.185,2.5,2.5,0,0,0-1.538.469v7.379Z" transform="translate(0 -0.001)" fill="#fff"/>
</svg>
