<svg xmlns="http://www.w3.org/2000/svg" width="53.367" height="16.363" viewBox="0 0 53.367 16.363">
  <path id="V" d="M5380.53,75.067c-4.27,0-7.277,2.15-7.3,5.231-.024,2.278,2.147,3.548,3.786,4.307,1.682.777,2.248,1.273,2.239,1.966-.011,1.063-1.343,1.548-2.585,1.548a9.056,9.056,0,0,1-4.067-.832l-.557-.252-.606,3.549a13.681,13.681,0,0,0,4.813.846c4.542,0,7.49-2.125,7.523-5.416.017-1.8-1.135-3.176-3.627-4.307-1.51-.733-2.435-1.223-2.425-1.965,0-.659.783-1.364,2.474-1.364a7.97,7.97,0,0,1,3.234.607l.387.183.586-3.436A11.159,11.159,0,0,0,5380.53,75.067Zm-13.416.275-2.7,15.852h4.319l2.7-15.852Zm-21.447,0-.055.33a18.144,18.144,0,0,1,4.539,1.739l3.841,13.768,4.571-.005,6.8-15.821h-4.577l-4.23,10.81-.451-2.2h0l-1.515-7.284a1.809,1.809,0,0,0-1.958-1.338Zm46.477.013a2.15,2.15,0,0,0-2.263,1.315L5383.464,91.2H5388s.742-1.953.91-2.382l5.533.007c.129.555.526,2.375.526,2.375h4.009l-3.5-15.842Zm.305,4.273.292,1.367s.828,3.784,1,4.577h-3.587c.357-.913,1.722-4.431,1.722-4.431-.026.042.354-.918.573-1.513Z" transform="translate(-5345.612 -75.066)" fill="#fff"/>
</svg>
