<?xml version="1.0" standalone="no"?>
<!DOCTYPE svg PUBLIC "-//W3C//DTD SVG 20010904//EN"
        "http://www.w3.org/TR/2001/REC-SVG-20010904/DTD/svg10.dtd">
<svg version="1.0" xmlns="http://www.w3.org/2000/svg"
     width="260.000000pt" height="260.000000pt" viewBox="0 0 260.000000 260.000000"
     preserveAspectRatio="xMidYMid meet">
    <metadata>
        Created by potrace 1.11, written by Peter Selinger 2001-2013
    </metadata>
    <g transform="translate(0.000000,260.000000) scale(0.100000,-0.100000)"
       fill="#000000" stroke="none">
        <path d="M1080 2571 c-19 -5 -51 -12 -70 -15 -97 -19 -296 -101 -376 -156 -25
-16 -47 -30 -50 -30 -3 0 -12 -6 -19 -12 -31 -28 -44 -38 -51 -38 -4 0 -55
-48 -113 -107 -192 -193 -301 -397 -357 -663 -15 -74 -19 -129 -18 -270 1
-129 6 -172 27 -261 64 -261 189 -480 372 -648 21 -20 49 -45 61 -56 24 -22
22 -21 122 -87 115 -77 299 -155 402 -173 19 -3 42 -8 50 -10 48 -13 89 -17
220 -20 147 -3 238 7 370 41 36 10 69 21 75 26 5 4 15 8 22 8 22 0 193 86 263
132 188 123 335 288 434 485 65 127 78 162 110 290 24 91 31 164 31 303 0 127
-4 171 -25 270 -57 269 -220 537 -428 706 -40 32 -79 65 -87 72 -7 6 -18 12
-24 12 -6 0 -11 3 -11 8 0 4 -10 12 -23 18 -50 25 -92 50 -99 59 -4 6 -8 7 -8
3 0 -4 -17 2 -37 13 -39 22 -162 66 -223 79 -19 5 -46 12 -60 16 -35 10 -438
14 -480 5z"/>
    </g>
</svg>
