<svg xmlns="http://www.w3.org/2000/svg" xmlns:xlink="http://www.w3.org/1999/xlink" width="83.022" height="15.927" viewBox="0 0 83.022 15.927">
  <defs>
    <clipPath id="clip-path">
      <rect id="rect2" width="83.022" height="15.927" fill="#fff"/>
    </clipPath>
  </defs>
  <g id="Amazon" clip-path="url(#clip-path)">
    <path id="path7" d="M104.773,111.014a20.1,20.1,0,0,1-11.346,3.468,20.534,20.534,0,0,1-13.86-5.288c-.287-.26-.031-.614.314-.413a27.9,27.9,0,0,0,13.868,3.68,27.591,27.591,0,0,0,10.578-2.165C104.846,110.077,105.281,110.638,104.773,111.014Z" transform="translate(-72.013 -98.555)" fill="#fff" fill-rule="evenodd"/>
    <path id="path9" d="M326.769,104.206c-.393-.5-2.594-.238-3.583-.119-.3.036-.346-.226-.076-.415,1.756-1.234,4.634-.878,4.969-.464s-.089,3.3-1.734,4.678c-.254.212-.494.1-.382-.181C326.333,106.779,327.162,104.709,326.769,104.206Z" transform="translate(-292.732 -93.205)" fill="#fff" fill-rule="evenodd"/>
    <path id="path11" d="M323.426,4.168v-1.2a.3.3,0,0,1,.3-.3H329.1a.3.3,0,0,1,.31.3V4a1.691,1.691,0,0,1-.4.754l-2.783,3.973a5.965,5.965,0,0,1,3.064.658.548.548,0,0,1,.285.468v1.279c0,.176-.193.38-.4.274a6.187,6.187,0,0,0-5.676.01c-.187.1-.382-.1-.382-.278V9.919a1.446,1.446,0,0,1,.2-.824l3.224-4.625h-2.807a.3.3,0,0,1-.31-.3Z" transform="translate(-292.903 -2.416)" fill="#fff" fill-rule="evenodd"/>
    <path id="path13" d="M98.17,10.154H96.536a.307.307,0,0,1-.293-.276V1.49a.308.308,0,0,1,.316-.3h1.522a.307.307,0,0,1,.3.282V2.564h.031a2.245,2.245,0,0,1,4.272,0,2.413,2.413,0,0,1,4.149-.635,4.452,4.452,0,0,1,.412,2.63l0,5.294a.308.308,0,0,1-.315.3h-1.632a.306.306,0,0,1-.293-.3V5.406a10.68,10.68,0,0,0-.046-1.57.851.851,0,0,0-.96-.724,1.084,1.084,0,0,0-.977.688,5.075,5.075,0,0,0-.152,1.607V9.853a.308.308,0,0,1-.315.3h-1.633a.306.306,0,0,1-.293-.3l0-4.447c0-.936.153-2.312-1.007-2.312-1.175,0-1.129,1.341-1.129,2.312V9.853A.308.308,0,0,1,98.17,10.154Z" transform="translate(-87.243 -0.916)" fill="#fff" fill-rule="evenodd"/>
    <path id="path15" d="M404.23,2.723c-1.2,0-1.281,1.641-1.281,2.665S402.933,8.6,404.215,8.6c1.266,0,1.327-1.765,1.327-2.842a7.763,7.763,0,0,0-.245-2.224A1.023,1.023,0,0,0,404.23,2.723Zm-.015-1.712c2.426,0,3.737,2.084,3.737,4.731,0,2.559-1.449,4.589-3.737,4.589-2.38,0-3.677-2.083-3.677-4.678,0-2.613,1.312-4.643,3.677-4.643Z" transform="translate(-363.081 -0.916)" fill="#fff" fill-rule="evenodd"/>
    <path id="path17" d="M494.808,10.154h-1.629a.307.307,0,0,1-.293-.3l0-8.391a.31.31,0,0,1,.314-.274h1.516a.311.311,0,0,1,.291.235V2.706h.031a2.223,2.223,0,0,1,2.227-1.695A2.143,2.143,0,0,1,499.169,2a5.338,5.338,0,0,1,.427,2.612V9.89a.309.309,0,0,1-.313.264h-1.638a.308.308,0,0,1-.291-.264V5.336c0-.918.107-2.26-1.022-2.26a1.07,1.07,0,0,0-.946.671,3.728,3.728,0,0,0-.26,1.589V9.853A.313.313,0,0,1,494.808,10.154Z" transform="translate(-446.79 -0.916)" fill="#fff" fill-rule="evenodd"/>
    <path id="path19" d="M235.564,9.354a.338.338,0,0,1-.386.038,3.984,3.984,0,0,1-.937-1.089,3.239,3.239,0,0,1-2.695,1.188A2.32,2.32,0,0,1,229.1,6.943a2.776,2.776,0,0,1,1.743-2.671,11.293,11.293,0,0,1,3.073-.566V3.494a2.091,2.091,0,0,0-.2-1.185,1.091,1.091,0,0,0-.917-.425,1.245,1.245,0,0,0-1.314.981.346.346,0,0,1-.284.3l-1.585-.172a.289.289,0,0,1-.244-.342c.36-1.895,2.052-2.486,3.59-2.5h.121a3.676,3.676,0,0,1,2.405.813c.8.743.718,1.734.718,2.813V6.323a2.231,2.231,0,0,0,.617,1.514.308.308,0,0,1-.005.435c-.334.28-.927.795-1.253,1.086Zm-1.647-3.985a3.21,3.21,0,0,1-.306,1.734,1.329,1.329,0,0,1-1.132.743c-.626,0-.993-.477-.993-1.185,0-1.392,1.248-1.645,2.431-1.645Z" transform="translate(-207.675 -0.137)" fill="#fff" fill-rule="evenodd"/>
    <path id="path21" d="M6.464,9.354a.339.339,0,0,1-.386.038A3.967,3.967,0,0,1,5.141,8.3,3.239,3.239,0,0,1,2.446,9.491,2.32,2.32,0,0,1,0,6.943,2.775,2.775,0,0,1,1.743,4.272a11.293,11.293,0,0,1,3.073-.566V3.494a2.09,2.09,0,0,0-.2-1.185A1.092,1.092,0,0,0,3.7,1.884a1.244,1.244,0,0,0-1.314.981.346.346,0,0,1-.284.3L.518,2.995a.288.288,0,0,1-.244-.342C.633.758,2.326.167,3.864.151h.121A3.676,3.676,0,0,1,6.391.964c.795.743.718,1.734.718,2.813V6.323a2.231,2.231,0,0,0,.617,1.514.309.309,0,0,1-.005.435c-.334.28-.928.795-1.253,1.086ZM4.816,5.369A3.205,3.205,0,0,1,4.51,7.1a1.327,1.327,0,0,1-1.132.743c-.626,0-.993-.477-.993-1.185,0-1.392,1.249-1.645,2.431-1.645Z" transform="translate(0 -0.137)" fill="#fff" fill-rule="evenodd"/>
    <path id="path23" d="M798.894,14.814V14.2c0-.175.086-.3.269-.285a3.842,3.842,0,0,0,1.167.026,1.356,1.356,0,0,0,.959-.846c.268-.612.445-1.106.557-1.43l-3.4-8.423c-.057-.143-.074-.408.211-.408h1.189a.371.371,0,0,1,.37.285l2.465,6.842,2.353-6.842a.37.37,0,0,1,.369-.285h1.121c.284,0,.268.265.211.408l-3.373,8.686c-.436,1.156-1.018,3-2.327,3.317a3.45,3.45,0,0,1-1.971-.094A.384.384,0,0,1,798.894,14.814Z" transform="translate(-723.746 -2.567)" fill="#fff" fill-rule="evenodd"/>
    <path id="path25" d="M718.193,8.725a.286.286,0,0,1-.286.285h-.838a.327.327,0,0,1-.328-.285l-.084-.571a4.9,4.9,0,0,1-1.371.812,3.446,3.446,0,0,1-3.085-.145A2.458,2.458,0,0,1,711.135,6.7a2.6,2.6,0,0,1,.661-1.808,3.351,3.351,0,0,1,2.554-.978,7.957,7.957,0,0,1,2.232.294V3.055c0-1.167-.492-1.673-1.787-1.673a8.674,8.674,0,0,0-2.8.477.257.257,0,0,1-.268-.279V.926A.406.406,0,0,1,712,.571,8.45,8.45,0,0,1,714.958,0c1.478,0,3.235.333,3.235,2.607Zm-1.611-1.676V5.316a8.946,8.946,0,0,0-1.854-.218,2.144,2.144,0,0,0-1.518.485,1.432,1.432,0,0,0-.353.982,1.312,1.312,0,0,0,.532,1.152,2.166,2.166,0,0,0,1.735.079A3.792,3.792,0,0,0,716.582,7.048Z" transform="translate(-644.631)" fill="#fff" fill-rule="evenodd"/>
    <path id="path27" d="M616.372,1.458c1.86,0,2.366,1.462,2.366,3.137a3.766,3.766,0,0,1-.782,2.711,2.116,2.116,0,0,1-1.662.549,4.034,4.034,0,0,1-2.159-.817V2.251A3.847,3.847,0,0,1,616.372,1.458ZM613.851,12.6h-1.123a.286.286,0,0,1-.285-.285V.615a.286.286,0,0,1,.285-.285h.859a.327.327,0,0,1,.327.285l.09.613A4.415,4.415,0,0,1,616.833.055c2.765,0,3.674,2.278,3.674,4.647,0,2.535-1.391,4.571-3.743,4.571a3.938,3.938,0,0,1-2.629-1v4.039A.286.286,0,0,1,613.851,12.6Z" transform="translate(-555.169 -0.05)" fill="#fff" fill-rule="evenodd"/>
  </g>
</svg>
