<svg xmlns="http://www.w3.org/2000/svg" width="53.485" height="33.588" viewBox="0 0 53.485 33.588">
  <path id="AMEX" d="M3124.82,382.3a2.853,2.853,0,0,1,2.852-2.853h47.781a2.852,2.852,0,0,1,2.852,2.853V410.18a2.853,2.853,0,0,1-2.852,2.853h-47.781a2.852,2.852,0,0,1-2.852-2.853Zm0,12.9h2.569l.579-1.391h1.3l.578,1.391h5.055v-1.064l.451,1.068h2.624l.451-1.084v1.08h12.563l-.006-2.284h.243c.17.006.22.022.22.3V395.2h6.5v-.532a5.166,5.166,0,0,0,2.412.532h2.733l.585-1.391h1.3l.572,1.391h5.268v-1.322l.8,1.322h4.221v-8.737h-4.177v1.032l-.585-1.032h-4.286v1.032l-.537-1.032h-5.79a5.219,5.219,0,0,0-2.51.51v-.51h-4v.51a2.484,2.484,0,0,0-1.7-.51h-14.6l-.979,2.257-1.006-2.257h-4.6v1.032l-.505-1.032h-3.921l-1.821,4.154Zm16.235-1.23h-1.542l-.006-4.906-2.18,4.906h-1.32l-2.186-4.91v4.91h-3.058l-.578-1.4h-3.131l-.584,1.4h-1.633l2.693-6.264h2.234l2.557,5.931V387.7h2.454l1.968,4.25,1.808-4.25h2.5v6.264h0Zm-11.413-2.7-1.029-2.5-1.023,2.5Zm17.556,2.7h-5.023V387.7h5.023v1.3h-3.519v1.129h3.435v1.284h-3.435v1.251h3.519Zm7.083-4.577a1.764,1.764,0,0,1-1.06,1.67,1.745,1.745,0,0,1,.744.528,1.8,1.8,0,0,1,.249,1.149v1.231H3152.7l-.006-.79a1.874,1.874,0,0,0-.237-1.22,1.476,1.476,0,0,0-1.1-.268h-1.614v2.278h-1.5V387.7h3.458a3.554,3.554,0,0,1,1.821.3,1.46,1.46,0,0,1,.761,1.387Zm-1.966.88a1.4,1.4,0,0,1-.744.129h-1.827v-1.391h1.852a1.549,1.549,0,0,1,.713.113.573.573,0,0,1,.316.554A.64.64,0,0,1,3152.315,390.27Zm4.373,3.7h-1.534V387.7h1.534Zm17.8,0h-2.131l-2.85-4.7v4.7h-3.062l-.585-1.4h-3.124l-.568,1.4h-1.759a2.659,2.659,0,0,1-2.984-3.084,3.325,3.325,0,0,1,.811-2.449,3.061,3.061,0,0,1,2.284-.73h1.456v1.342h-1.425a1.451,1.451,0,0,0-1.157.371,2.062,2.062,0,0,0-.432,1.419,2.166,2.166,0,0,0,.414,1.471,1.454,1.454,0,0,0,1.048.323h.675l2.119-4.926h2.253l2.546,5.925V387.7h2.289l2.643,4.363V387.7h1.54Zm-9.141-2.7-1.041-2.5-1.035,2.5Zm12.958,12.677a2.348,2.348,0,0,1-2.041.8h-2.9V403.4h2.892a.858.858,0,0,0,.608-.155.55.55,0,0,0,.178-.409.514.514,0,0,0-.184-.414.766.766,0,0,0-.53-.139c-1.412-.048-3.173.043-3.173-1.939,0-.909.579-1.865,2.157-1.865h3v-1.247h-2.783a3.145,3.145,0,0,0-1.882.512v-.512h-4.116a2.857,2.857,0,0,0-1.8.512v-.512h-7.351v.512a3.924,3.924,0,0,0-2.028-.512H3153.5v.512a3.44,3.44,0,0,0-2.119-.512h-5.426l-1.242,1.338-1.163-1.338h-8.105v8.743h7.953l1.28-1.359,1.205,1.359,4.9,0v-2.057h.482a5.126,5.126,0,0,0,2.094-.307v2.36h4.043v-2.279h.2c.249,0,.273.01.273.258v2.021h12.283a3.513,3.513,0,0,0,2.046-.559v.559h3.9a5.24,5.24,0,0,0,2.205-.4Zm-24.352-3.4c0,1.741-1.3,2.1-2.618,2.1h-1.876v2.1h-2.922l-1.852-2.074-1.924,2.074H3136.8v-6.266h6.048l1.85,2.054,1.913-2.054h4.8C3152.612,398.477,3153.952,398.806,3153.952,400.541Zm-11.954,2.9h-3.7V402.19h3.3v-1.278h-3.3v-1.139h3.77l1.645,1.826Zm5.962.736-2.309-2.552,2.309-2.471Zm3.441-2.8h-1.943v-1.6h1.961c.543,0,.92.22.92.768S3151.979,401.369,3151.4,401.369Zm10.145-2.892h5.019v1.3h-3.521v1.139h3.435v1.278h-3.435v1.247l3.521.006v1.3h-5.019Zm-1.9,3.354a1.634,1.634,0,0,1,.736.526,1.818,1.818,0,0,1,.249,1.144v1.242h-1.51v-.784c0-.377.036-.935-.243-1.226a1.463,1.463,0,0,0-1.1-.278h-1.607v2.289h-1.511v-6.266h3.471a3.736,3.736,0,0,1,1.809.3,1.466,1.466,0,0,1,.773,1.391,1.755,1.755,0,0,1-1.066,1.667Zm-.908-.78a1.445,1.445,0,0,1-.742.129h-1.827v-1.407h1.851a1.488,1.488,0,0,1,.718.113.6.6,0,0,1,.311.564A.675.675,0,0,1,3158.738,401.051Zm13.568.387a1.74,1.74,0,0,1,.45,1.328c0,1.348-.846,1.977-2.362,1.977h-2.929V403.4h2.917a.886.886,0,0,0,.614-.155.554.554,0,0,0,.178-.409.537.537,0,0,0-.184-.414.793.793,0,0,0-.535-.139c-1.406-.048-3.167.043-3.167-1.939,0-.909.573-1.865,2.15-1.865h3.014v1.334h-2.758a1.021,1.021,0,0,0-.6.113.524.524,0,0,0,.1.918,1.736,1.736,0,0,0,.585.071l.81.022A2.432,2.432,0,0,1,3172.306,401.438Zm6-1.628h-2.74a1.045,1.045,0,0,0-.609.113.487.487,0,0,0-.22.451.473.473,0,0,0,.329.467,1.721,1.721,0,0,0,.58.071l.815.022a2.384,2.384,0,0,1,1.706.5.813.813,0,0,1,.139.155Z" transform="translate(-3124.82 -379.444)" fill="#fff" fill-rule="evenodd"/>
</svg>
