<svg xmlns="http://www.w3.org/2000/svg" width="35.133" height="27.253" viewBox="0 0 35.133 27.253">
  <path id="MC" d="M7400.132,1625.48a10.935,10.935,0,0,0-6,1.812,11.7,11.7,0,0,1,0,18.076,10.852,10.852,0,1,0,6-19.888Zm-13.41.008a10.85,10.85,0,1,0,6,19.888,11.7,11.7,0,0,1,0-18.076A10.869,10.869,0,0,0,7386.722,1625.488Zm6.705,2.313a10.858,10.858,0,0,0,0,17.057A10.858,10.858,0,0,0,7393.427,1627.8Zm16.751,14.837v.424h.063v-.322l.125.274h.086l.11-.274v.322h.086v-.424h-.109l-.125.275-.125-.275Zm-.447.008v.063h.149v.361h.063v-.361h.149v-.063Zm-1.066,5.952v1.514a1.426,1.426,0,1,0,0,2.18v.361h.62V1648.6Zm-18.7.29v.878h-.6v.572h.6v1.31c0,1.38,1.357,1.129,1.772.855l-.172-.533c-.3.165-.957.345-.957-.322v-1.3h1.027v-.58h-1.027v-.878Zm6.989.791a.846.846,0,0,0-.73.433v-.345h-.644v2.878h.644v-1.623a.654.654,0,0,1,1-.659l.188-.6A1.082,1.082,0,0,0,7396.957,1649.679Zm-3.381,0a1.412,1.412,0,0,0-1.427,1.514,1.564,1.564,0,0,0,2.65,1.114l-.3-.47c-.611.5-1.537.455-1.717-.384h2.157C7394.94,1650.183,7394.36,1649.681,7393.576,1649.681Zm12.091,0a.841.841,0,0,0-.736.429v-.345h-.62v2.878h.62v-1.623a.658.658,0,0,1,1-.659l.188-.6A1.032,1.032,0,0,0,7405.667,1649.683Zm-3.759,0a1.459,1.459,0,0,0-1.416,1.517,1.377,1.377,0,0,0,2.345,1.09v.361h.643v-2.886h-.643v.345A1.111,1.111,0,0,0,7401.908,1649.686Zm-14.2,0c-.621.012-1.2.283-1.2.944,0,1.121,1.8.651,1.8,1.176,0,.494-1.059.455-1.623.063l-.274.494c.878.6,2.556.471,2.556-.588,0-1.176-1.8-.643-1.8-1.192,0-.447.933-.376,1.451-.086l.259-.51A2.186,2.186,0,0,0,7387.707,1649.686Zm-8.553,0a1,1,0,0,0-.831.423v-.345h-.643v2.878h.643c0-1.482-.2-2.368.706-2.368.8,0,.643.8.643,2.368h.62c0-1.435-.2-2.368.706-2.368.8,0,.643.784.643,2.368h.643v-1.8h-.016a1.1,1.1,0,0,0-1.153-1.153,1.12,1.12,0,0,0-1,.51A1.04,1.04,0,0,0,7379.154,1649.689Zm5.1,0a1.516,1.516,0,0,0,0,3.027,1.088,1.088,0,0,0,.917-.423v.361h.62v-2.886h-.62v.345A1.131,1.131,0,0,0,7384.251,1649.689Zm14.922,0a1.467,1.467,0,0,0-1.567,1.521,1.561,1.561,0,0,0,2.564,1.176l-.3-.51c-.722.51-1.624.2-1.624-.674,0-.894.91-1.184,1.624-.659l.3-.51A1.668,1.668,0,0,0,7399.173,1649.689Zm-5.621.573a.721.721,0,0,1,.753.682h-1.5A.727.727,0,0,1,7393.552,1650.261Zm-9.215.024a.867.867,0,0,1,.855.917.868.868,0,1,1-.855-.917Zm17.668,0a.867.867,0,0,1,.878.917.868.868,0,1,1-.878-.917Zm5.827,0a.876.876,0,0,1,.878.917.879.879,0,1,1-.878-.917Zm2.266,1.835a.789.789,0,0,1-.11.023.408.408,0,0,0-.086.063.122.122,0,0,0-.063.086.24.24,0,0,0-.023.125.228.228,0,0,0,.023.11.122.122,0,0,0,.063.086.271.271,0,0,0,.086.063.217.217,0,0,0,.11.023.239.239,0,0,0,.125-.023c.023-.024.063-.039.086-.063s.04-.063.063-.086a.224.224,0,0,0,.024-.11.236.236,0,0,0-.024-.125c-.022-.024-.039-.063-.062-.086s-.063-.039-.086-.063C7410.186,1652.143,7410.139,1652.12,7410.1,1652.12Z" transform="translate(-7375.86 -1625.48)" fill="#fff"/>
</svg>
