<svg xmlns="http://www.w3.org/2000/svg" width="30" height="30" viewBox="0 0 30 30"><path d="M133.287,192.962a9.913,9.913,0,0,0-9.89,9.89,9.809,9.809,0,0,0,1.309,4.9,15.333,15.333,0,0,0-6.418,12.509l1.114,2.7h.77l1.114-2.7a12.326,12.326,0,0,1,5.292-10.158,9.85,9.85,0,0,0,6.709,2.638,9.661,9.661,0,0,0,6.673-2.667,12.326,12.326,0,0,1,5.328,10.186l1.114,2.7h.77l1.115-2.7a15.33,15.33,0,0,0-6.484-12.557,10,10,0,0,0,1.255-4.259,8.639,8.639,0,0,0,0-1.178,9.851,9.851,0,0,0-9.771-9.305Zm0,3a6.891,6.891,0,1,1-6.89,6.889A6.868,6.868,0,0,1,133.287,195.963Z" transform="translate(-118.288 -192.962)" fill="#ff6a14"/></svg>